<svg id="Capa_1" enable-background="new 0 0 512 512" height="512" viewBox="0 0 512 512" width="512" xmlns="http://www.w3.org/2000/svg"><g><path d="m316.666 306.58v-46.621c0-8.284-6.716-15-15-15h-90c-8.284 0-15 6.716-15 15v46.574s0 46.476 59.112 46.476c60.888 0 60.888-46.429 60.888-46.429z" fill="#fab9c0"/><path d="m301.666 244.959h-45.666v108.047c60.663-.113 60.666-46.426 60.666-46.426v-46.621c0-8.284-6.716-15-15-15z" fill="#f9a7b0"/><path d="m468.676 492.609-40-130.666c-1.272-4.156-4.285-7.557-8.258-9.32l-37.272-16.541c-3.6 7.202-64.376 48.131-127.318 48.131-59.988 0-122.156-41.129-125.777-48.461l-38.408 16.845c-4.001 1.756-7.039 5.168-8.318 9.347l-40 130.666c-1.393 4.548-.545 9.487 2.283 13.31 2.829 3.824 7.303 6.08 12.06 6.08h396.666c4.756 0 9.231-2.256 12.06-6.08 2.827-3.823 3.674-8.763 2.282-13.311z" fill="#5dc983"/><path d="m468.676 492.609-40-130.666c-1.272-4.156-4.285-7.557-8.258-9.32l-37.272-16.541c-3.6 7.202-64.294 48.088-127.146 48.13v127.788h198.333c4.756 0 9.231-2.256 12.06-6.08 2.828-3.823 3.675-8.763 2.283-13.311z" fill="#0eab61"/><path d="m316.666 306.58c-1.305 1.305-28.888 26.429-60.888 26.429-31.98 0-57.89-25.254-59.112-26.476l-66.616 29.219c3.621 7.332 8.469 14.209 14.574 20.309 8.045 8.041 51.215 48.151 111.203 48.151 62.942 0 107.995-43.235 112.924-48.165 6.006-6.005 10.794-12.764 14.394-19.966z" fill="#81e885"/><path d="m316.666 306.58c-1.302 1.302-28.761 26.307-60.666 26.424v71.207c62.851-.079 107.826-43.238 112.751-48.163 6.006-6.005 10.794-12.764 14.394-19.966z" fill="#5dc983"/><path d="m349.964 28.302c-24.049-18.516-56.541-28.302-93.964-28.302s-69.915 9.786-93.964 28.302c-26.846 20.668-41.036 50.648-41.036 86.698 0 36.134 14.05 74.141 38.547 104.275 26.592 32.71 60.846 50.725 96.453 50.725s69.861-18.015 96.453-50.725c24.497-30.134 38.547-68.141 38.547-104.275 0-36.05-14.19-66.03-41.036-86.698z" fill="#48578a"/><path d="m349.964 28.302c-24.049-18.516-56.541-28.302-93.964-28.302v270c35.607 0 69.861-18.015 96.453-50.725 24.497-30.134 38.547-68.141 38.547-104.275 0-36.05-14.19-66.03-41.036-86.698z" fill="#2d3c72"/><path d="m256.666 70c-49.626 0-90 40.375-90 90v40c0 49.627 40.374 90 90 90s90-40.373 90-90v-40c0-49.625-40.374-90-90-90z" fill="#fcced3"/><path d="m256.666 70c-.223 0-.444.007-.666.008v219.984c.222.001.443.008.666.008 49.626 0 90-40.373 90-90v-40c0-49.625-40.374-90-90-90z" fill="#fab9c0"/></g></svg>