<svg id="Capa_1" enable-background="new 0 0 512 512" height="512" viewBox="0 0 512 512" width="512" xmlns="http://www.w3.org/2000/svg" xmlns:xlink="http://www.w3.org/1999/xlink"><linearGradient id="SVGID_1_" gradientUnits="userSpaceOnUse" x1="256" x2="256" y1="512" y2="0"><stop offset="0" stop-color="#00b59c"/><stop offset="1" stop-color="#9cffac"/></linearGradient><g><g><path d="m239.735 422.061c-83.964-7.472-149.735-79.975-149.735-165.061 0-55.563 28.438-108.801 73.397-139.137l19.603 26.137c7.566 10.086 23.494 6.869 26.552-5.362l30-120c2.368-9.472-4.811-18.638-14.552-18.638h-120c-12.332 0-19.409 14.121-12 24l16.239 21.652c-67.766 47.473-109.239 126.98-109.239 211.348 0 128.34 95.317 237.495 221.717 253.903 7.513.978 14.629-3.818 16.483-11.237l14.757-59.027c2.234-8.935-4.049-17.762-13.222-18.578zm208.43-335.932c-41.001-46.94-97.072-77.139-157.881-85.033-7.555-.981-14.637 3.852-16.483 11.237l-14.759 59.027c-2.233 8.936 4.049 17.763 13.223 18.579 83.964 7.472 149.735 80.414 149.735 166.061 0 55.902-27.813 107.708-73.379 138.161l-19.621-26.161c-7.565-10.086-23.494-6.87-26.552 5.362l-30 120c-2.368 9.472 4.811 18.638 14.552 18.638h120c12.332 0 19.409-14.122 12-24l-16.236-21.649c30.718-21.49 56.583-49.826 75.39-82.736 22.142-38.749 33.846-82.878 33.846-127.615 0-62.416-22.67-122.744-63.835-169.871z" fill="url(#SVGID_1_)"/></g></g></svg>